<svg width="960" height="720" viewBox="0 0 960 720" fill="none" xmlns="http://www.w3.org/2000/svg">
<mask id="mask0_3661_317" style="mask-type:alpha" maskUnits="userSpaceOnUse" x="0" y="0" width="960" height="720">
<rect width="960" height="720" fill="#F9CADB"/>
</mask>
<g mask="url(#mask0_3661_317)">
<rect width="960" height="720" fill="#F9CADB"/>
<rect width="960" height="720" fill="white"/>
<rect width="960" height="720" fill="#F9CADB"/>
<line x1="625.924" y1="-17" x2="625.924" y2="719.72" stroke="#F8D4E1" stroke-width="2"/>
<line x1="677.086" y1="-17" x2="677.086" y2="719.72" stroke="#F8D4E1" stroke-width="2"/>
<line x1="728.246" y1="-17" x2="728.246" y2="719.72" stroke="#F8D4E1" stroke-width="2"/>
<line x1="779.406" y1="-17" x2="779.406" y2="719.72" stroke="#F8D4E1" stroke-width="2"/>
<line x1="830.568" y1="-17" x2="830.568" y2="719.72" stroke="#F8D4E1" stroke-width="2"/>
<line x1="881.729" y1="-17" x2="881.728" y2="719.72" stroke="#F8D4E1" stroke-width="2"/>
<line x1="932.891" y1="-17" x2="932.891" y2="719.72" stroke="#F8D4E1" stroke-width="2"/>
<line x1="575.785" y1="-17" x2="575.785" y2="719.72" stroke="#F8D4E1" stroke-width="2"/>
<line x1="525.648" y1="-17" x2="525.648" y2="719.72" stroke="#F8D4E1" stroke-width="2"/>
<line x1="475.512" y1="-17" x2="475.512" y2="719.72" stroke="#F8D4E1" stroke-width="2"/>
<line x1="425.373" y1="-17" x2="425.373" y2="719.72" stroke="#F8D4E1" stroke-width="2"/>
<line x1="375.234" y1="-17" x2="375.234" y2="719.72" stroke="#F8D4E1" stroke-width="2"/>
<line x1="325.096" y1="-17" x2="325.096" y2="719.72" stroke="#F8D4E1" stroke-width="2"/>
<line x1="274.959" y1="-17" x2="274.959" y2="719.72" stroke="#F8D4E1" stroke-width="2"/>
<line x1="224.822" y1="-17" x2="224.822" y2="719.72" stroke="#F8D4E1" stroke-width="2"/>
<line x1="174.684" y1="-17" x2="174.684" y2="719.72" stroke="#F8D4E1" stroke-width="2"/>
<line x1="124.545" y1="-17" x2="124.545" y2="719.72" stroke="#F8D4E1" stroke-width="2"/>
<line x1="74.4062" y1="-17" x2="74.4062" y2="719.72" stroke="#F8D4E1" stroke-width="2"/>
<line x1="24.2695" y1="-17" x2="24.2695" y2="719.72" stroke="#F8D4E1" stroke-width="2"/>
<line x1="-13.5645" y1="23.9531" x2="968.728" y2="23.9531" stroke="#F8D4E1" stroke-width="2"/>
<line x1="-13.5645" y1="74.0938" x2="968.728" y2="74.0938" stroke="#F8D4E1" stroke-width="2"/>
<line x1="-13.5645" y1="124.234" x2="968.728" y2="124.234" stroke="#F8D4E1" stroke-width="2"/>
<line x1="-13.5645" y1="174.367" x2="968.728" y2="174.367" stroke="#F8D4E1" stroke-width="2"/>
<line x1="-13.5645" y1="224.5" x2="968.728" y2="224.5" stroke="#F8D4E1" stroke-width="2"/>
<line x1="-13.5645" y1="274.641" x2="968.728" y2="274.641" stroke="#F8D4E1" stroke-width="2"/>
<line x1="-13.5645" y1="324.781" x2="968.728" y2="324.781" stroke="#F8D4E1" stroke-width="2"/>
<line x1="-13.5645" y1="374.922" x2="968.728" y2="374.922" stroke="#F8D4E1" stroke-width="2"/>
<line x1="-14" y1="422" x2="968.293" y2="422" stroke="#F8D4E1" stroke-width="2"/>
<line x1="-13.5645" y1="475.195" x2="968.728" y2="475.195" stroke="#F8D4E1" stroke-width="2"/>
<line x1="-13.5645" y1="525.328" x2="968.728" y2="525.328" stroke="#F8D4E1" stroke-width="2"/>
<line x1="-13.5645" y1="575.469" x2="968.728" y2="575.469" stroke="#F8D4E1" stroke-width="2"/>
<line x1="-13.5645" y1="625.609" x2="968.728" y2="625.609" stroke="#F8D4E1" stroke-width="2"/>
<line x1="-13.5645" y1="675.742" x2="968.728" y2="675.742" stroke="#F8D4E1" stroke-width="2"/>
<path d="M670.85 46.5774L671.372 47.2036L671.693 46.4543L687.43 9.76309L687.306 49.6865L687.304 50.5018L688.031 50.1344L723.671 32.1427L697.914 62.6461L697.388 63.2691L698.182 63.4555L737.048 72.5818L697.71 79.3924L696.906 79.5315L697.395 80.1845L721.302 112.159L686.789 92.0896L686.084 91.6797L686.039 92.4938L683.8 132.355L670.262 94.7965L669.985 94.0294L669.427 94.6236L642.09 123.72L655.861 86.2465L656.142 85.4812L655.333 85.5775L615.689 90.2947L650.325 70.4403L651.033 70.0348L650.351 69.5882L616.95 47.7191L656.245 54.7737L657.047 54.9178L656.812 54.1372L645.282 15.9147L670.85 46.5774Z" fill="#FEF4AC" stroke="#F6BFD7"/>
<path d="M963.329 564.862L1029.78 591.125L959.289 602.808L958.597 602.922L958.931 603.539L992.949 666.368L931.444 630.01L930.841 629.653L930.7 630.34L916.374 700.337L892.629 632.95L892.396 632.289L891.847 632.725L835.879 677.136L861.005 610.252L861.251 609.596L860.55 609.577L789.129 607.623L851.369 572.537L851.98 572.193L851.455 571.728L797.999 524.322L868.231 537.452L868.92 537.581L868.817 536.887L858.339 466.212L903.699 521.414L904.145 521.955L904.512 521.358L941.914 460.482L941.179 531.926L941.172 532.628L941.838 532.406L1009.62 509.814L963.133 564.071L962.677 564.604L963.329 564.862Z" fill="#FBE9F1" stroke="#F7BFD7"/>
</g>
</svg>
