<svg width="146" height="35" viewBox="0 0 146 35" fill="none" xmlns="http://www.w3.org/2000/svg">
<path d="M53.712 29.384C52.0053 29.384 50.2987 29.0853 48.592 28.488C47.3547 28.9573 45.9253 29.192 44.304 29.192C43.9413 29.192 43.6107 29.1707 43.312 29.128C43.312 27.848 43.8987 24.6907 45.072 19.656C46.2453 14.6213 46.832 11.7733 46.832 11.112C46.832 10.4507 46.704 9.864 46.448 9.352C46.2133 8.84 45.968 8.456 45.712 8.2L45.36 7.848L45.488 7.048C46.0213 6.94133 47.248 6.792 49.168 6.6C51.1093 6.38667 52.752 6.28 54.096 6.28C59.3013 6.28 61.904 7.95467 61.904 11.304C61.904 12.8613 61.3707 14.1307 60.304 15.112C59.2587 16.0933 57.9573 16.7547 56.4 17.096C57.872 17.2667 59.1093 17.8 60.112 18.696C61.1147 19.5707 61.616 20.8187 61.616 22.44C61.616 24.4453 60.8693 26.1093 59.376 27.432C57.8827 28.7333 55.9947 29.384 53.712 29.384ZM52.624 18.184C52.24 18.184 51.8133 18.216 51.344 18.28C50.512 21.928 49.9787 24.5733 49.744 26.216C50.2133 26.4933 50.8533 26.632 51.664 26.632C52.9013 26.632 53.8293 26.12 54.448 25.096C55.0667 24.072 55.376 22.92 55.376 21.64C55.376 20.3387 55.1413 19.4427 54.672 18.952C54.224 18.44 53.5413 18.184 52.624 18.184ZM52.208 15.848C53.1467 15.848 53.8827 15.496 54.416 14.792C55.376 13.576 55.856 12.232 55.856 10.76C55.856 9.26667 55.344 8.52 54.32 8.52L53.264 8.648C53.2427 9.48 52.7947 11.88 51.92 15.848H52.208ZM63.7555 29.192H63.4995C63.4355 28.8933 63.4035 28.4347 63.4035 27.816C63.4035 27.176 63.6595 25.544 64.1715 22.92C64.7048 20.2747 64.9715 18.7813 64.9715 18.44C64.9715 18.0773 64.8755 17.7147 64.6835 17.352C64.4915 16.968 64.2995 16.68 64.1075 16.488L63.8195 16.2L63.8835 15.72C65.1635 15.3147 67.2862 15.112 70.2515 15.112C70.5288 15.6453 70.6995 16.2747 70.7635 17C72.0648 15.5493 73.2168 14.824 74.2195 14.824C75.5208 14.824 76.2355 15.9227 76.3635 18.12C76.3208 18.1627 76.2675 18.2373 76.2035 18.344C76.1395 18.4293 75.9902 18.5893 75.7555 18.824C75.5208 19.0587 75.2755 19.272 75.0195 19.464C74.2942 19.9547 73.5262 20.2427 72.7155 20.328C72.6942 20.328 72.5448 20.0933 72.2675 19.624C72.0115 19.1547 71.7875 18.92 71.5955 18.92C71.4248 18.92 71.0942 19.112 70.6035 19.496C70.5395 19.88 70.4115 20.5307 70.2195 21.448C70.0488 22.3653 69.9102 23.1227 69.8035 23.72C69.4835 25.2987 69.3235 26.6213 69.3235 27.688L69.3555 28.648C68.4168 29.0107 66.5502 29.192 63.7555 29.192ZM75.3588 23.208C75.3588 20.5627 76.1588 18.504 77.7588 17.032C79.3801 15.56 81.3748 14.824 83.7428 14.824C85.3854 14.824 86.6974 15.1867 87.6788 15.912C88.6814 16.616 89.1828 17.5653 89.1828 18.76C89.1828 19.6347 88.9161 20.4133 88.3828 21.096C87.8494 21.7787 87.1988 22.3013 86.4308 22.664C84.8094 23.3893 83.4014 23.8267 82.2068 23.976L81.4068 24.072C81.6414 25.48 82.3454 26.184 83.5188 26.184C84.0308 26.184 84.5961 26.0773 85.2148 25.864C85.8334 25.6293 86.3241 25.3947 86.6868 25.16L87.2308 24.84L88.2548 26.216C88.2548 26.216 88.1374 26.3333 87.9028 26.568C87.7748 26.696 87.4654 26.952 86.9748 27.336C86.5054 27.6987 86.0041 28.0187 85.4708 28.296C84.9588 28.5733 84.2974 28.8187 83.4868 29.032C82.6761 29.2667 81.8654 29.384 81.0548 29.384C79.2414 29.384 77.8334 28.8613 76.8307 27.816C75.8494 26.7493 75.3588 25.2133 75.3588 23.208ZM81.2788 21.96C81.8974 21.8747 82.5161 21.3733 83.1348 20.456C83.7534 19.5173 84.0628 18.7387 84.0628 18.12C84.0628 17.48 83.8814 17.16 83.5188 17.16C82.9854 17.16 82.4948 17.576 82.0468 18.408C81.5988 19.24 81.3428 20.424 81.2788 21.96ZM105.232 16.04C104.784 17.4267 104.4 19.08 104.08 21C103.76 22.8987 103.6 24.232 103.6 25C103.6 25.7467 103.718 26.12 103.952 26.12L105.552 25.672L106.128 27.272C105.446 27.8053 104.571 28.296 103.504 28.744C102.459 29.1707 101.531 29.384 100.72 29.384C99.3336 29.384 98.4589 28.7867 98.0963 27.592C96.4109 28.7867 94.9176 29.384 93.6163 29.384C92.3363 29.384 91.3443 28.9147 90.6403 27.976C89.9363 27.0373 89.5843 25.6933 89.5843 23.944C89.5843 21.5333 90.2029 19.4107 91.4403 17.576C92.6776 15.7413 94.3096 14.824 96.3363 14.824C97.4456 14.824 98.5763 15.1333 99.7283 15.752C99.8989 15.368 100.038 15.0907 100.144 14.92C101.68 14.92 103.376 15.2933 105.232 16.04ZM95.6003 23.56C95.6003 24.6267 95.6749 25.2987 95.8243 25.576C95.9736 25.8533 96.2509 25.992 96.6562 25.992C97.0616 25.992 97.4563 25.832 97.8403 25.512C97.9256 23.0373 98.3309 20.4453 99.0563 17.736C98.7363 17.544 98.3629 17.448 97.9363 17.448C97.5309 17.448 97.1576 17.6827 96.8163 18.152C96.4963 18.6213 96.2509 19.208 96.0803 19.912C95.7603 21.256 95.6003 22.472 95.6003 23.56ZM117.72 29.384C116.398 29.384 115.544 28.872 115.16 27.848C113.539 28.872 112.088 29.384 110.808 29.384C109.55 29.384 108.526 28.9573 107.736 28.104C106.968 27.2293 106.584 25.8213 106.584 23.88C106.584 21.3413 107.224 19.1973 108.504 17.448C109.806 15.6987 111.48 14.824 113.528 14.824C114.531 14.824 115.534 15.0587 116.536 15.528C117.326 11.9227 117.72 9.33067 117.72 7.752C117.72 7.28267 117.688 6.81333 117.624 6.344C119.608 5.78933 121.518 5.512 123.352 5.512C123.523 5.78933 123.608 6.45067 123.608 7.496C123.608 8.52 123.118 11.2933 122.136 15.816C121.176 20.3387 120.696 23.368 120.696 24.904C120.696 25.7147 120.835 26.12 121.112 26.12L122.488 25.672L123.064 27.304C121.187 28.6907 119.406 29.384 117.72 29.384ZM113.528 26.152C113.912 26.152 114.339 26.024 114.808 25.768V25.736C114.894 24.008 115.31 21.288 116.056 17.576C115.63 17.448 115.32 17.384 115.128 17.384C114.68 17.384 114.286 17.608 113.944 18.056C113.603 18.504 113.336 19.08 113.144 19.784C112.782 21.2347 112.6 22.664 112.6 24.072C112.6 25.4587 112.91 26.152 113.528 26.152ZM131.608 17C131.608 17.9387 131.341 19.4 130.808 21.384C130.275 23.3467 130.008 24.6267 130.008 25.224C130.008 25.8213 130.125 26.12 130.36 26.12C130.595 26.12 131.021 26.0133 131.64 25.8L131.928 25.672L132.504 27.272C131.779 27.8267 130.872 28.3173 129.784 28.744C128.717 29.1707 127.747 29.384 126.872 29.384C125.997 29.384 125.304 29.1387 124.792 28.648C124.301 28.1573 124.056 27.4533 124.056 26.536C124.056 25.5973 124.312 24.1787 124.824 22.28C125.357 20.36 125.624 19.144 125.624 18.632C125.624 17.8427 125.347 17.096 124.792 16.392L124.536 16.04L124.632 15.496C125.741 15.1547 127.896 14.984 131.096 14.984C131.437 15.368 131.608 16.04 131.608 17ZM129.208 12.488C128.248 12.488 127.491 12.232 126.936 11.72C126.403 11.208 126.136 10.5573 126.136 9.768C126.136 8.95733 126.467 8.28533 127.128 7.752C127.811 7.19733 128.632 6.92 129.592 6.92C130.552 6.92 131.299 7.144 131.832 7.592C132.365 8.04 132.632 8.66933 132.632 9.48C132.632 10.2907 132.301 10.9947 131.64 11.592C131 12.1893 130.189 12.488 129.208 12.488ZM144.498 17.672L141.746 17.448C140.892 21.2667 140.423 23.4853 140.338 24.104C140.274 24.7227 140.242 25.2347 140.242 25.64C140.242 26.024 140.37 26.216 140.626 26.216C140.924 26.216 141.49 26.024 142.322 25.64L143.09 27.176C142.407 27.7947 141.543 28.3173 140.498 28.744C139.452 29.1707 138.439 29.384 137.458 29.384C136.498 29.384 135.73 29.1387 135.154 28.648C134.578 28.136 134.29 27.4213 134.29 26.504C134.29 25.5867 134.556 24.1147 135.09 22.088C135.623 20.0613 135.975 18.5573 136.146 17.576C135.634 17.6187 134.876 17.6933 133.874 17.8C133.788 17.352 133.746 16.936 133.746 16.552C133.746 16.1467 133.799 15.6987 133.906 15.208H136.466C136.487 14.9307 136.498 14.0027 136.498 12.424L136.434 11.112C138.503 10.4293 140.476 10.088 142.354 10.088C142.503 10.4293 142.578 11.0267 142.578 11.88C142.578 12.712 142.439 13.8213 142.162 15.208H145.042C145.042 16.0827 144.86 16.904 144.498 17.672Z" fill="#3D3D3D"/>
<circle cx="17.4901" cy="17.4862" r="16.4128" fill="#3D3D3D" stroke="#3D3D3D" stroke-width="0.6"/>
<circle cx="16.7128" cy="16.7128" r="16.4128" fill="#FFD15C" stroke="#3D3D3D" stroke-width="0.6"/>
<path d="M24.0976 19.8281C24.0976 22.8333 20.7913 25.2695 16.7128 25.2695C12.6344 25.2695 9.32812 22.8333 9.32812 19.8281" stroke="#3D3D3D" stroke-linecap="round"/>
<ellipse cx="12.2451" cy="14.1885" rx="1.36034" ry="2.91502" fill="#3D3D3D"/>
<ellipse cx="21.1846" cy="14.1885" rx="1.36034" ry="2.91502" fill="#3D3D3D"/>
<path d="M24.875 20.2168C24.7195 19.9577 24.527 19.8281 24.0977 19.8281C23.6683 19.8281 23.4758 19.9577 23.3203 20.2168" stroke="#3D3D3D" stroke-linecap="round"/>
<path d="M10.1055 20.2168C9.94999 19.9577 9.75743 19.8281 9.32812 19.8281C8.89881 19.8281 8.70625 19.9577 8.55078 20.2168" stroke="#3D3D3D" stroke-linecap="round"/>
</svg>
