<svg width="176" height="176" viewBox="0 0 176 176" fill="none" xmlns="http://www.w3.org/2000/svg">
<mask id="mask0_3661_315" style="mask-type:alpha" maskUnits="userSpaceOnUse" x="0" y="0" width="176" height="176">
<mask id="path-1-inside-1_3661_315" fill="white">
<path d="M175.423 93.8567C176.945 72.5112 170.592 51.3479 157.566 34.3697C144.539 17.3915 125.742 5.77567 104.731 1.71921C83.7191 -2.33725 61.9492 1.44694 43.539 12.356C25.1287 23.2651 11.3544 40.5427 4.82154 60.9209C-1.71135 81.299 -0.549913 103.365 8.08618 122.944C16.7223 142.524 32.2342 158.26 51.688 167.176C71.1418 176.092 93.1886 177.57 113.658 171.33C134.128 165.091 151.602 151.566 162.774 133.314L88.1445 87.6328L175.423 93.8567Z"/>
</mask>
<path d="M175.423 93.8567C176.945 72.5112 170.592 51.3479 157.566 34.3697C144.539 17.3915 125.742 5.77567 104.731 1.71921C83.7191 -2.33725 61.9492 1.44694 43.539 12.356C25.1287 23.2651 11.3544 40.5427 4.82154 60.9209C-1.71135 81.299 -0.549913 103.365 8.08618 122.944C16.7223 142.524 32.2342 158.26 51.688 167.176C71.1418 176.092 93.1886 177.57 113.658 171.33C134.128 165.091 151.602 151.566 162.774 133.314L88.1445 87.6328L175.423 93.8567Z" fill="#FEF4AC" stroke="#DFA026" stroke-width="2" mask="url(#path-1-inside-1_3661_315)"/>
</mask>
<g mask="url(#mask0_3661_315)">
<mask id="path-2-inside-2_3661_315" fill="white">
<path d="M175.423 93.8567C176.945 72.5112 170.592 51.3479 157.566 34.3697C144.539 17.3915 125.742 5.77567 104.731 1.71921C83.7191 -2.33725 61.9492 1.44694 43.539 12.356C25.1287 23.2651 11.3544 40.5427 4.82154 60.9209C-1.71135 81.299 -0.549913 103.365 8.08618 122.944C16.7223 142.524 32.2342 158.26 51.688 167.176C71.1418 176.092 93.1886 177.57 113.658 171.33C134.128 165.091 151.602 151.566 162.774 133.314L88.1445 87.6328L175.423 93.8567Z"/>
</mask>
<path d="M175.423 93.8567C176.945 72.5112 170.592 51.3479 157.566 34.3697C144.539 17.3915 125.742 5.77567 104.731 1.71921C83.7191 -2.33725 61.9492 1.44694 43.539 12.356C25.1287 23.2651 11.3544 40.5427 4.82154 60.9209C-1.71135 81.299 -0.549913 103.365 8.08618 122.944C16.7223 142.524 32.2342 158.26 51.688 167.176C71.1418 176.092 93.1886 177.57 113.658 171.33C134.128 165.091 151.602 151.566 162.774 133.314L88.1445 87.6328L175.423 93.8567Z" fill="#FEF4AC" stroke="#DFA026" stroke-width="2" mask="url(#path-2-inside-2_3661_315)"/>
<path d="M126.642 136.05C126.642 136.05 127.86 138.03 130.297 141.991C131.3 143.543 132.037 144.482 132.508 144.806L134.321 145.625L134.444 145.938C133.697 146.7 132.504 147.611 130.866 148.669C130.401 148.463 129.854 147.874 129.225 146.9C128.604 145.939 127.826 144.6 126.891 142.882C125.964 141.176 125.214 139.88 124.641 138.993C124.068 138.106 123.572 137.797 123.153 138.068C122.906 138.227 122.676 138.655 122.463 139.352C122.257 140.061 122.14 140.757 122.109 141.44C123.637 144.399 124.715 146.365 125.344 147.338C125.973 148.312 126.693 149.13 127.505 149.792C127.067 150.547 126.159 151.492 124.779 152.627C124.357 152.271 123.884 151.687 123.358 150.874C122.841 150.073 122.067 148.591 121.037 146.428C119.994 144.273 119.261 142.869 118.84 142.216C118.426 141.576 118.034 141.375 117.664 141.613C117.282 141.86 117.002 142.548 116.823 143.676C116.644 144.804 116.632 146.069 116.786 147.471C116.937 148.893 117.26 150.055 117.755 150.957L120.454 150.838C120.845 151.633 121.083 152.378 121.166 153.075C121.245 153.793 121.23 154.309 121.12 154.625L120.954 155.098C120.203 155.584 119.502 155.757 118.853 155.617C118.2 155.498 117.702 155.173 117.36 154.644C116.716 153.646 116.216 152.318 115.862 150.662C115.495 149.013 115.307 147.37 115.298 145.735C115.277 144.107 115.472 142.585 115.883 141.167C116.302 139.761 116.906 138.803 117.694 138.294C118.162 137.992 118.724 137.943 119.38 138.148C120.024 138.36 120.575 138.808 121.033 139.49C121.098 138.4 121.296 137.451 121.629 136.642C121.963 135.834 122.406 135.25 122.961 134.892C123.515 134.534 124.149 134.447 124.862 134.633C125.571 134.838 126.164 135.31 126.642 136.05Z" fill="#DFA026"/>
<path d="M111.081 146.04C111.609 147.796 111.499 149.337 110.75 150.666C109.991 152.012 108.938 152.888 107.59 153.294C106.761 153.544 106.019 153.545 105.362 153.298C104.706 153.052 104.274 152.584 104.067 151.896C103.864 151.222 103.869 150.601 104.08 150.031C104.278 149.466 104.584 148.984 105 148.583C105.849 147.791 106.669 147.207 107.459 146.832L107.946 146.616C107.45 145.326 106.711 144.828 105.728 145.124C105.391 145.226 105.058 145.418 104.729 145.7C104.401 145.983 104.157 146.24 103.997 146.472L103.757 146.82L103.048 146.298C103.114 146.11 103.278 145.839 103.539 145.485C103.8 145.13 104.052 144.824 104.296 144.567C104.976 143.873 105.8 143.379 106.769 143.088C107.738 142.796 108.607 142.91 109.376 143.429C110.145 143.948 110.713 144.818 111.081 146.04ZM108.278 147.642C107.599 147.984 107.122 148.457 106.844 149.062C106.566 149.666 106.542 150.347 106.77 151.106C106.998 151.864 107.337 152.176 107.787 152.04C108.32 151.88 108.597 151.298 108.617 150.297C108.628 149.313 108.514 148.429 108.278 147.642Z" fill="#DFA026"/>
<path d="M81.5035 155.049C81.4721 155.076 81.3776 155.26 81.22 155.601C80.5326 155.551 79.6262 155.278 78.501 154.783C78.9563 153.596 79.3429 152.345 79.6606 151.03C79.9773 149.73 80.1567 148.795 80.1988 148.224C80.2399 147.668 80.2019 147.386 80.0849 147.377C79.9972 147.371 79.6651 147.486 79.0888 147.723L78.8157 147.835L78.4776 147.038C78.6178 146.931 78.8042 146.798 79.0365 146.638C79.2543 146.478 79.667 146.266 80.2748 146.002C80.8815 145.752 81.4189 145.645 81.8869 145.68C82.7938 145.747 83.2901 146.195 83.3758 147.025C84.3725 146.275 85.2511 145.928 86.0117 145.984C86.7576 146.039 87.3723 146.379 87.8556 147.003C88.3243 147.626 88.5122 148.566 88.4193 149.824C88.2745 151.784 87.7582 153.298 86.8706 154.364C85.9818 155.446 84.967 155.944 83.8261 155.86C83.007 155.8 82.2328 155.529 81.5035 155.049ZM84.5575 147.752C84.2064 147.726 83.8013 147.836 83.3419 148.081C83.0871 150.136 82.5927 152.151 81.8585 154.126C82.2832 154.349 82.6492 154.472 82.9563 154.494C83.4829 154.533 83.9747 154.048 84.4317 153.037C84.873 152.04 85.1396 150.92 85.2315 149.677C85.3233 148.434 85.0987 147.792 84.5575 147.752Z" fill="#DFA026"/>
<path d="M74.4427 144.609L74.5903 144.653C74.5849 144.773 74.5236 145.031 74.4063 145.424C74.2849 145.832 73.7727 146.858 72.8698 148.502C71.9669 150.146 71.4778 151.094 71.4024 151.347C71.2726 151.783 71.327 152.319 71.5657 152.957L71.68 153.266L71.5773 153.534C70.7555 153.519 69.5082 153.262 67.8355 152.764C67.7757 152.348 67.8442 151.81 68.041 151.149C67.811 151.356 67.3872 151.597 66.7696 151.872C66.152 152.147 65.5832 152.208 65.0631 152.053C64.3041 151.827 64.1214 151.053 64.515 149.732C64.6104 149.668 64.7423 149.585 64.9106 149.482C65.0608 149.389 65.3542 149.278 65.7908 149.147C66.2134 149.013 66.6017 148.968 66.9558 149.012C66.9699 149.017 67.0328 149.242 67.1447 149.689C67.2565 150.135 67.3687 150.375 67.4811 150.409C67.8702 150.387 68.2423 150.268 68.5973 150.052C70.1106 147.335 70.995 145.548 71.2504 144.691C71.3425 144.381 71.4004 144.161 71.424 144.031C71.9746 143.981 72.9808 144.173 74.4427 144.609Z" fill="#DFA026"/>
<path d="M62.1463 144.529C61.2589 146.134 60.0783 147.131 58.6046 147.523C57.1109 147.92 55.7481 147.778 54.516 147.097C53.7589 146.678 53.2394 146.147 52.9576 145.505C52.6758 144.863 52.7088 144.228 53.0567 143.599C53.3974 142.983 53.8454 142.552 54.4005 142.306C54.9428 142.053 55.5025 141.935 56.0794 141.953C57.2391 142.007 58.2295 142.187 59.0506 142.49L59.5446 142.688C60.1221 141.432 59.9617 140.555 59.0633 140.058C58.7553 139.888 58.3854 139.784 57.9537 139.746C57.522 139.708 57.1673 139.713 56.8896 139.761L56.4731 139.832L56.3518 138.961C56.5326 138.876 56.8409 138.804 57.2767 138.743C57.7125 138.682 58.1077 138.65 58.4624 138.645C59.434 138.646 60.3625 138.891 61.2481 139.381C62.1336 139.871 62.6591 140.572 62.8246 141.485C62.9901 142.398 62.764 143.413 62.1463 144.529ZM59.042 143.642C58.3236 143.395 57.6512 143.384 57.0248 143.607C56.3984 143.83 55.8935 144.288 55.5101 144.981C55.1267 145.675 55.1404 146.135 55.5511 146.362C56.0388 146.632 56.6481 146.424 57.3791 145.739C58.0901 145.059 58.6444 144.36 59.042 143.642Z" fill="#DFA026"/>
<path d="M42.2307 123.612C42.7326 124.224 43.2557 125.095 43.8002 126.222C44.4423 126.682 44.9725 127.167 45.3907 127.678C45.8089 128.188 46.0335 128.497 46.0645 128.605C45.3187 129.083 43.3709 130.119 40.2213 131.713C37.051 133.305 35.1255 134.38 34.4447 134.937C34.3085 135.049 34.1874 135.271 34.0813 135.605C33.9752 135.938 33.9031 136.244 33.8651 136.521L33.8081 136.938L33.5109 137.096C31.9871 135.86 30.5235 134.386 29.1202 132.673C28.3488 131.731 27.9438 130.773 27.905 129.8C27.8457 128.825 28.2188 128.008 29.0244 127.348C30.5788 126.075 32.4327 126.139 34.5861 127.541C34.0542 126.707 33.8231 125.834 33.8928 124.924C33.9418 124.012 34.4032 123.198 35.2768 122.482C36.3434 121.609 37.5274 121.284 38.8288 121.507C40.1302 121.73 41.2641 122.432 42.2307 123.612ZM36.4397 128.867C36.7 129.185 36.9607 129.445 37.2219 129.648C39.7773 128.37 41.5362 127.451 42.4987 126.89C42.4593 126.448 42.1933 125.927 41.7007 125.326C41.1988 124.713 40.5331 124.386 39.7034 124.345C38.8623 124.314 37.9879 124.67 37.0802 125.413C35.696 126.547 35.4825 127.698 36.4397 128.867ZM30.4681 132.166C30.8213 132.597 31.0701 132.82 31.2146 132.834C32.3659 132.156 33.9185 131.321 35.8724 130.327C35.5007 129.873 35.2121 129.579 35.0067 129.444C34.8012 129.308 34.5974 129.21 34.3951 129.148C34.1835 129.075 33.9069 129.027 33.5653 129.003C32.8202 128.95 31.9882 129.3 31.0691 130.052C30.1387 130.815 29.9384 131.519 30.4681 132.166Z" fill="#DFA026"/>
<path d="M36.8194 115.963L36.8874 116.101C36.7951 116.179 36.5647 116.309 36.1963 116.49C35.8147 116.678 34.714 116.999 32.8943 117.454C31.0745 117.908 30.0462 118.194 29.8094 118.31C29.4014 118.511 29.0447 118.916 28.7392 119.524L28.5898 119.818L28.3235 119.925C27.7763 119.311 27.1173 118.221 26.3465 116.656C26.6109 116.329 27.0523 116.014 27.6708 115.709C27.3627 115.681 26.8979 115.534 26.2764 115.268C25.655 115.002 25.2244 114.625 24.9847 114.138C24.6349 113.428 25.0785 112.768 26.3154 112.159C26.4268 112.186 26.5774 112.226 26.7673 112.28C26.9375 112.327 27.2187 112.466 27.6108 112.698C27.9964 112.917 28.2933 113.172 28.5014 113.461C28.5079 113.475 28.3853 113.674 28.1337 114.059C27.882 114.445 27.7821 114.69 27.8339 114.795C28.1143 115.066 28.4542 115.258 28.8536 115.372C31.8754 114.637 33.7877 114.072 34.5903 113.676C34.8798 113.534 35.0806 113.427 35.1925 113.355C35.6034 113.725 36.1457 114.595 36.8194 115.963Z" fill="#DFA026"/>
<path d="M28.5187 106.887C26.7386 107.326 25.2043 107.138 23.9157 106.323C22.6094 105.496 21.7878 104.4 21.4508 103.033C21.2437 102.193 21.28 101.451 21.5596 100.808C21.8392 100.165 22.3279 99.7578 23.0256 99.5858C23.7092 99.4173 24.3298 99.4531 24.8875 99.6933C25.4417 99.9193 25.9083 100.25 26.2875 100.685C27.0351 101.573 27.5766 102.422 27.9118 103.23L28.1023 103.727C29.4163 103.298 29.9505 102.584 29.7048 101.588C29.6205 101.246 29.4456 100.904 29.1799 100.561C28.9143 100.219 28.6697 99.962 28.4461 99.7905L28.1108 99.5333L28.668 98.8521C28.8528 98.9274 29.1154 99.1044 29.456 99.383C29.7965 99.6616 30.0891 99.9293 30.3337 100.186C30.993 100.9 31.4437 101.748 31.6859 102.731C31.9281 103.713 31.7705 104.575 31.2131 105.317C30.6557 106.059 29.7576 106.582 28.5187 106.887ZM27.0609 104.007C26.7537 103.312 26.3054 102.811 25.7159 102.503C25.1264 102.195 24.4472 102.136 23.6782 102.325C22.9092 102.515 22.5809 102.837 22.6932 103.293C22.8266 103.834 23.3929 104.14 24.3923 104.211C25.3739 104.271 26.2634 104.203 27.0609 104.007Z" fill="#DFA026"/>
<path d="M20.241 85.7657C20.2115 85.7366 20.0203 85.6571 19.6675 85.5273C19.6631 84.838 19.8627 83.9127 20.2661 82.7515C21.4857 83.1105 22.7635 83.3958 24.0995 83.6074C25.4209 83.8192 26.3675 83.9232 26.9395 83.9196C27.4968 83.9161 27.7751 83.8557 27.7744 83.7384C27.7738 83.6504 27.6325 83.3286 27.3503 82.773L27.2167 82.5099L27.9842 82.109C28.1023 82.2403 28.2501 82.4154 28.4275 82.6343C28.6048 82.8385 28.8493 83.233 29.1609 83.8177C29.4579 84.4025 29.6079 84.9296 29.6109 85.3989C29.6166 86.3082 29.2092 86.8388 28.3888 86.9906C29.216 87.9241 29.632 88.7722 29.6368 89.5348C29.6415 90.2828 29.3522 90.9226 28.7689 91.4543C28.1854 91.9713 27.2631 92.2338 26.0017 92.2417C24.0365 92.254 22.4866 91.8604 21.3522 91.0608C20.2032 90.2614 19.6251 89.2896 19.6179 88.1457C19.6128 87.3244 19.8204 86.531 20.241 85.7657ZM27.7586 88.2266C27.7564 87.8746 27.6145 87.4795 27.3331 87.0412C25.2645 86.9515 23.2164 86.6197 21.1888 86.0458C21.0009 86.487 20.9079 86.8615 20.9098 87.1695C20.9131 87.6975 21.4366 88.1489 22.4803 88.5237C23.5093 88.8839 24.6471 89.0601 25.8937 89.0523C27.1404 89.0445 27.762 88.7692 27.7586 88.2266Z" fill="#DFA026"/>
<path d="M30.9375 67.9243C31.6876 69.3865 31.9513 70.581 31.7287 71.508C31.5095 72.4208 30.9265 72.8389 29.9795 72.7623C30.3046 73.2929 30.5251 73.8511 30.6408 74.437C30.7566 75.0229 30.7665 75.5155 30.6706 75.9148C30.5062 76.5993 30.0664 77.1121 29.351 77.4532C28.6356 77.7943 27.6504 77.8141 26.3954 77.5128C24.5129 77.0608 23.1327 76.3071 22.2549 75.2516C21.3628 74.1928 21.0365 73.1642 21.2762 72.1659C21.5194 71.1533 21.9513 70.3596 22.572 69.7846C20.3678 68.7878 18.6026 68.1301 17.2763 67.8117L16.3521 67.7029C16.2382 66.5443 16.3044 65.4515 16.551 64.4247C16.8208 64.3689 17.1126 64.3786 17.4264 64.4539C18.4674 64.7039 20.5099 65.5261 23.5538 66.9207C26.5834 68.3118 28.6687 69.1443 29.8096 69.4182C30.1518 69.5004 30.3418 69.4631 30.3795 69.3062C30.4 69.2206 30.3296 68.9171 30.1682 68.3957L30.0912 68.151L30.9375 67.9243ZM22.7901 71.4207C22.6702 71.9199 23.0578 72.473 23.9528 73.08C24.8512 73.6728 25.7853 74.0857 26.7551 74.3185C27.7106 74.5479 28.3392 74.631 28.641 74.5677C28.9462 74.4902 29.1314 74.3159 29.1964 74.0449C29.3094 73.5743 29.2282 73.0646 28.9527 72.5158C28.3925 72.336 26.5728 71.5597 23.4936 70.1869C23.1204 70.6101 22.8859 71.0214 22.7901 71.4207Z" fill="#DFA026"/>
<path d="M28.3502 56.4808C28.9079 56.7422 29.7867 57.3728 30.9865 58.3726C32.173 59.3661 32.9787 59.9624 33.4037 60.1616C33.8153 60.3546 34.0492 60.3913 34.1052 60.2718C34.1426 60.1921 34.1596 59.8276 34.1563 59.1781L34.1488 58.883L35.0047 58.8712C35.0549 59.0405 35.113 59.2621 35.179 59.536C35.245 59.8099 35.2898 60.2845 35.3135 60.9597C35.3239 61.6287 35.2201 62.1956 35.0022 62.6604C34.7844 63.1252 34.4737 63.425 34.0703 63.5599C33.6537 63.6885 33.2063 63.6408 32.7282 63.4167C32.2369 63.1864 31.4515 62.6158 30.3721 61.7048C29.2794 60.7877 28.5471 60.2419 28.1752 60.0676C27.6175 59.8062 27.012 59.7329 26.3588 59.8479L26.0357 59.9151L25.7861 59.7738C25.9168 58.9766 26.3526 57.7878 27.0933 56.2075C27.3735 56.1282 27.7924 56.2193 28.3502 56.4808ZM23.979 57.2016C23.5889 57.3427 23.1747 57.3106 22.7364 57.1051C22.2982 56.8997 21.9971 56.5399 21.8332 56.0257C21.6755 55.4982 21.7087 54.9955 21.9328 54.5174C22.1569 54.0393 22.464 53.7297 22.8541 53.5886C23.2442 53.4475 23.6584 53.4797 24.0966 53.6851C24.5216 53.8843 24.8098 54.2543 24.9613 54.795C25.119 55.3225 25.0889 55.8186 24.871 56.2834C24.6531 56.7482 24.3558 57.0543 23.979 57.2016Z" fill="#DFA026"/>
<path d="M34.3739 44.8993C34.658 45.133 34.9358 45.4784 35.2072 45.9355C34.8406 46.3593 34.5147 46.7758 34.2298 47.185L34.0034 47.51C36.3018 49.9328 37.7819 51.3747 38.4439 51.8358C38.7929 52.0788 39.0177 52.1282 39.1183 51.9837C39.2273 51.8273 39.3576 51.3193 39.5094 50.4598L40.3314 50.5498C40.476 52.2412 40.2298 53.5443 39.5928 54.459C39.2994 54.8802 38.924 55.1371 38.4664 55.2295C38.0172 55.3098 37.576 55.1991 37.1427 54.8974C36.6974 54.5873 36.2314 54.1913 35.7449 53.7094C35.2667 53.2155 34.6933 52.6017 34.0247 51.8679C33.344 51.1258 32.7863 50.5408 32.3515 50.1129C32.0775 50.5833 31.8831 50.9395 31.7683 51.1812C31.6071 51.1047 31.4062 50.9826 31.1655 50.815C30.9127 50.639 30.7207 50.4784 30.5894 50.3334L31.3815 49.196C30.7986 48.6471 30.2184 48.1715 29.6407 47.7691L29.0684 47.3974L29.0143 47.3597C29.3431 46.1946 29.7967 45.1968 30.3751 44.3664C30.6493 44.4859 30.967 44.6714 31.328 44.9228C31.6891 45.1743 32.2979 45.7502 33.1543 46.6505L34.3739 44.8993Z" fill="#DFA026"/>
<path d="M43.0323 27.8619L49.1698 23.8144L50.8324 22.5838C51.0463 22.8098 51.2506 23.0605 51.4455 23.3358C51.6404 23.6112 51.7323 23.8426 51.7213 24.0301C51.7102 24.2176 51.579 24.4003 51.3276 24.5782C51.3036 24.5952 50.4046 25.1147 48.6304 26.1369C48.9638 26.7095 49.4366 27.7584 50.0489 29.2836C50.6612 30.8088 51.3491 32.4153 52.1124 34.1031C52.8758 35.7909 53.6709 37.2317 54.4977 38.4253C54.2003 38.9952 53.3273 39.7928 51.8787 40.818L51.753 40.907C51.3124 40.2845 50.3403 38.1874 48.8366 34.6158C47.333 31.0441 46.3439 28.9231 45.8694 28.2527C45.8355 28.2048 45.7642 28.1295 45.6555 28.0267L44.9372 28.5351C43.9556 29.2299 43.3073 29.9134 42.9924 30.5855C42.4628 30.4212 41.9224 30.0131 41.3711 29.3611C41.6765 28.9293 42.2302 28.4296 43.0323 27.8619Z" fill="#DFA026"/>
<path d="M61.0193 30.4461C60.3495 28.7395 60.3337 27.1938 60.9718 25.8089C61.6183 24.405 62.5969 23.4459 63.9075 22.9315C64.7131 22.6153 65.4529 22.5534 66.1271 22.7457C66.8013 22.938 67.2697 23.3687 67.5322 24.0377C67.7894 24.693 67.8358 25.3129 67.6713 25.8974C67.5205 26.4766 67.2543 26.9828 66.8729 27.4161C66.0911 28.2744 65.3216 28.923 64.5643 29.362L64.0969 29.6164C64.6961 30.8622 65.4736 31.2976 66.4293 30.9225C66.757 30.7939 67.073 30.5754 67.3773 30.2669C67.6816 29.9584 67.904 29.682 68.0445 29.4378L68.2553 29.0715L69.004 29.5339C68.9537 29.727 68.8129 30.0107 68.5817 30.385C68.3505 30.7594 68.1237 31.0847 67.9013 31.3611C67.2809 32.1088 66.4997 32.6675 65.5576 33.0372C64.6156 33.4069 63.7402 33.3644 62.9315 32.9098C62.1229 32.4551 61.4855 31.6339 61.0193 30.4461ZM63.6826 28.6209C64.3306 28.2248 64.7684 27.7142 64.9958 27.0893C65.2232 26.4644 65.1922 25.7833 64.9029 25.046C64.6135 24.3087 64.2504 24.0259 63.8135 24.1973C63.2947 24.4009 63.0661 25.0027 63.1277 26.0027C63.1975 26.9836 63.3825 27.8564 63.6826 28.6209Z" fill="#DFA026"/>
<path d="M80.8656 19.4744C80.8906 19.4413 80.9441 19.2414 81.0262 18.8745C81.7089 18.7793 82.6524 18.8549 83.8567 19.1016C83.6618 20.3579 83.5476 21.6622 83.5141 23.0145C83.4786 24.3522 83.5003 25.3043 83.5794 25.8708C83.6564 26.4228 83.753 26.6907 83.8692 26.6745C83.9563 26.6623 84.2567 26.4798 84.7702 26.1268L85.0134 25.9595L85.512 26.6674C85.3975 26.8019 85.2434 26.9715 85.0498 27.1762C84.8708 27.3789 84.512 27.6733 83.9735 28.0594C83.433 28.4309 82.9304 28.6492 82.4655 28.714C81.5649 28.8396 80.9852 28.5059 80.7265 27.7127C79.9103 28.6558 79.1245 29.1801 78.3692 29.2855C77.6284 29.3888 76.956 29.1864 76.352 28.6784C75.7625 28.1682 75.3806 27.2886 75.2063 26.0393C74.9348 24.0929 75.1205 22.5046 75.7634 21.2747C76.4042 20.0302 77.2912 19.3289 78.4242 19.1709C79.2377 19.0574 80.0514 19.1586 80.8656 19.4744ZM79.4182 27.251C79.7668 27.2024 80.1397 27.0097 80.537 26.6729C80.353 24.6105 80.4116 22.5365 80.713 20.4509C80.2509 20.3228 79.8673 20.2801 79.5623 20.3227C79.0393 20.3956 78.661 20.9741 78.4272 22.0581C78.2059 23.1256 78.1813 24.2767 78.3536 25.5114C78.5258 26.7461 78.8807 27.326 79.4182 27.251Z" fill="#DFA026"/>
<path d="M89.8963 27.8044L89.4829 27.7423C89.5853 27.0606 89.9844 25.7857 90.6802 23.9177C91.3906 22.0519 91.7654 20.9884 91.8046 20.7273C91.8765 20.2487 91.7496 19.7105 91.4241 19.1129L91.2675 18.8224L91.3318 18.5429C92.1477 18.4429 93.4186 18.5226 95.1446 18.7818C95.3062 19.0879 95.3402 19.5528 95.2466 20.1764C96.6979 19.4007 97.8079 19.0706 98.5766 19.1861C99.5484 19.332 100.046 19.9184 100.07 20.9454C100.509 20.6851 101.066 20.435 101.74 20.1951C102.43 19.9428 103.022 19.8537 103.515 19.9278C104.023 20.0041 104.418 20.234 104.702 20.6177C104.988 20.9869 105.087 21.4616 105 22.0417C104.913 22.6219 104.609 23.5552 104.09 24.8416C103.57 26.1281 103.276 27.0034 103.206 27.4675C103.138 27.9171 103.17 28.1517 103.3 28.1713C103.387 28.1844 103.705 28.0913 104.255 27.892L104.513 27.7974L104.791 28.6176C104.357 28.9381 103.788 29.2234 103.083 29.4734C102.394 29.7112 101.804 29.793 101.31 29.719C100.223 29.5556 99.7714 28.8575 99.9565 27.6246C100.024 27.175 100.311 26.2986 100.819 24.9955C101.342 23.68 101.635 22.8193 101.696 22.4132C101.759 21.9925 101.667 21.7637 101.421 21.7267C101 21.6635 100.498 21.7512 99.913 21.9897C99.8404 22.2754 99.4892 23.2311 98.8594 24.857C98.2442 26.485 97.8668 27.7631 97.7274 28.6914C97.2784 28.8167 96.278 28.7629 94.7261 28.5298C94.721 28.3659 94.7643 27.9794 94.8558 27.3702C94.9472 26.761 95.2698 25.749 95.8234 24.3342C96.3915 22.9216 96.705 22.0195 96.7638 21.6279C96.8226 21.2363 96.7143 21.0198 96.4387 20.9784C96.0036 20.913 95.4988 21.0152 94.9244 21.2849C94.8757 21.4111 94.6349 22.0274 94.2017 23.1341C93.3354 25.3473 92.8292 26.9397 92.6833 27.9115C92.1451 28.0383 91.2161 28.0026 89.8963 27.8044Z" fill="#DFA026"/>
<path d="M124.03 27.7136C122.988 29.9462 121.534 31.7602 119.669 33.1555C118.743 33.8562 117.721 34.2937 116.604 34.4681C115.5 34.6487 114.416 34.4909 113.353 33.9945C112.064 33.3927 111.314 32.468 111.103 31.2204C110.899 29.9595 111.163 28.545 111.895 26.9768C113.16 24.2657 114.782 22.3357 116.759 21.1868C118.742 20.0246 120.664 19.8778 122.524 20.7464C123.853 21.3668 124.61 22.311 124.795 23.5789C124.986 24.8336 124.731 26.2118 124.03 27.7136ZM114.156 32.7426C114.754 33.0218 115.452 32.8784 116.251 32.3123C117.069 31.7392 117.838 30.941 118.558 29.9177C119.961 27.9181 120.917 26.3734 121.426 25.2836C121.941 24.1806 122.192 23.3996 122.18 22.9406C122.187 22.4745 121.958 22.1329 121.493 21.9158C121.041 21.7048 120.47 21.8186 119.779 22.2571C119.102 22.7018 118.421 23.3631 117.736 24.2411C116.379 25.9705 115.235 27.8319 114.304 29.8254C113.857 30.7822 113.64 31.4738 113.651 31.8999C113.669 32.3128 113.837 32.5937 114.156 32.7426Z" fill="#DFA026"/>
<path d="M129.783 29.1151C130.57 28.5977 131.528 28.3478 132.657 28.3655C133.795 28.3718 134.824 28.7402 135.742 29.4708C136.671 30.2105 137.216 31.0566 137.377 32.0091C137.558 32.9592 137.366 33.79 136.799 34.5015C136.233 35.2131 135.467 35.6342 134.501 35.765C133.543 35.8843 132.587 35.7322 131.63 35.3086C132.301 36.0673 132.673 36.907 132.747 37.8276C132.832 38.7573 132.541 39.6411 131.874 40.4789C131.034 41.5347 129.875 42.084 128.398 42.1268C126.93 42.158 125.605 41.7033 124.422 40.7627C123.137 39.7398 122.417 38.5483 122.262 37.1881C122.171 36.4783 122.34 35.8537 122.769 35.3143C122.906 35.1421 123.117 34.9721 123.4 34.8042C123.693 34.6247 123.963 34.521 124.21 34.4928C124.343 34.5612 124.479 34.6502 124.617 34.7598C125.431 35.4082 125.883 36.124 125.972 36.9071L124.279 38.5401C124.34 38.7942 124.559 39.0719 124.938 39.3733C125.512 39.8299 126.242 39.9242 127.13 39.6562C128.039 39.3859 128.822 38.8376 129.48 38.0113C130.137 37.185 130.401 36.4765 130.271 35.8859C130.151 35.2838 129.666 34.6448 128.817 33.969L128.407 33.6711L129.209 32.8754C129.817 33.2655 130.309 33.507 130.685 33.6C131.081 33.6906 131.473 33.74 131.86 33.7481C132.71 33.7871 133.441 33.4222 134.053 32.6533C134.436 32.1713 134.587 31.7105 134.506 31.2709C134.445 30.829 134.237 30.4665 133.881 30.1834C132.94 29.4345 131.74 29.3884 130.28 30.0449L129.783 29.1151Z" fill="#DFA026"/>
<path d="M152.249 50.3643C151.022 51.1419 148.841 51.9608 145.705 52.821C145.455 52.8926 144.996 53.0185 144.329 53.1985C143.682 53.3831 143.182 53.5263 142.83 53.6282C142.506 53.3644 142.262 53.1025 142.097 52.8424C141.94 52.5947 141.811 52.3639 141.71 52.15C144.681 50.8914 147.194 49.6101 149.25 48.3062L150.74 47.205C151.742 48.0457 152.506 48.881 153.032 49.7108C152.968 49.8558 152.707 50.0737 152.249 50.3643ZM137.25 53.7022C137.34 53.2974 137.59 52.9654 137.999 52.7061C138.408 52.4469 138.873 52.3863 139.394 52.5244C139.924 52.6748 140.33 52.973 140.613 53.4189C140.896 53.8648 140.992 54.2901 140.901 54.6949C140.811 55.0998 140.561 55.4318 140.152 55.691C139.756 55.9423 139.289 55.9866 138.752 55.8238C138.222 55.6734 137.82 55.3814 137.545 54.9479C137.27 54.5144 137.172 54.0991 137.25 53.7022Z" fill="#DFA026"/>
<path d="M157.566 61.6934C156.226 62.2524 153.938 62.6904 150.701 63.0076C150.443 63.0359 149.969 63.0823 149.281 63.1469C148.612 63.2194 148.095 63.276 147.731 63.3167C147.457 63.0021 147.26 62.7026 147.142 62.4183C147.029 62.1476 146.941 61.8983 146.877 61.6704C150.018 60.9325 152.712 60.0949 154.959 59.1576L156.614 58.3244C157.459 59.3225 158.071 60.275 158.449 61.182C158.361 61.314 158.067 61.4845 157.566 61.6934ZM142.219 62.4456C142.377 62.062 142.679 61.777 143.126 61.5907C143.572 61.4043 144.041 61.4233 144.532 61.6477C145.028 61.8855 145.378 62.2481 145.582 62.7354C145.785 63.2227 145.808 63.6582 145.65 64.0418C145.492 64.4255 145.19 64.7105 144.743 64.8968C144.31 65.0775 143.842 65.0421 143.34 64.7907C142.844 64.5529 142.497 64.1971 142.299 63.7233C142.101 63.2495 142.075 62.8236 142.219 62.4456Z" fill="#DFA026"/>
</g>
</svg>
