<svg width="168" height="168" viewBox="0 0 168 168" fill="none" xmlns="http://www.w3.org/2000/svg">
<mask id="mask0_3661_313" style="mask-type:alpha" maskUnits="userSpaceOnUse" x="0" y="0" width="168" height="168">
<circle cx="84" cy="84" r="83.5" fill="#C5F4D8" stroke="#639076"/>
</mask>
<g mask="url(#mask0_3661_313)">
<circle cx="84" cy="84" r="83.5" fill="#C5F4D8" stroke="#639076"/>
<path d="M38.5628 46.7573C38.5628 46.7573 36.9232 45.1085 33.6442 41.8108C32.3125 40.5295 31.3802 39.785 30.8472 39.5775L28.8949 39.195L28.7029 38.9186C29.2558 38.0055 30.2085 36.8462 31.561 35.4405C32.0607 35.5346 32.728 35.9834 33.563 36.7867C34.3873 37.58 35.4515 38.7057 36.7554 40.1639C38.0488 41.6119 39.0759 42.702 39.8369 43.4342C40.5978 44.1664 41.1512 44.3528 41.4969 43.9935C41.7003 43.7821 41.8261 43.3129 41.8744 42.5859C41.912 41.8487 41.8673 41.1442 41.7403 40.4724C39.5755 37.9416 38.0757 36.2746 37.2407 35.4712C36.4058 34.6678 35.5172 34.0366 34.5748 33.5776C34.8284 32.7429 35.4964 31.615 36.579 30.1938C37.0713 30.4436 37.6662 30.9041 38.3638 31.5753C39.0507 32.2363 40.1435 33.5015 41.6421 35.3709C43.1508 37.2297 44.1852 38.4286 44.7454 38.9675C45.2949 39.4963 45.7223 39.6022 46.0273 39.2851C46.3426 38.9575 46.4581 38.224 46.374 37.0846C46.2898 35.9452 46.0119 34.711 45.5403 33.382C45.0682 32.0323 44.4877 30.975 43.7988 30.2103L41.199 30.945C40.636 30.2609 40.2341 29.5892 39.9932 28.93C39.7519 28.25 39.6488 27.7437 39.6839 27.4111L39.7365 26.9122C40.3569 26.2675 40.9988 25.9388 41.6625 25.926C42.3257 25.8925 42.8845 26.0944 43.339 26.5317C44.195 27.3554 44.9853 28.533 45.7098 30.0646C46.4444 31.5857 47.0034 33.1412 47.3867 34.7312C47.7801 36.3107 47.9392 37.8376 47.8639 39.312C47.778 40.7762 47.4096 41.8465 46.7587 42.5229C46.3723 42.9245 45.8363 43.1008 45.1508 43.0518C44.4754 42.9922 43.8367 42.6829 43.2347 42.124C43.4213 43.1992 43.4452 44.1686 43.3062 45.0322C43.1673 45.8958 42.869 46.5654 42.4114 47.041C41.9538 47.5166 41.3565 47.746 40.6197 47.729C39.8826 47.6914 39.1969 47.3674 38.5628 46.7573Z" fill="#639176"/>
<path d="M50.5791 34.2292C49.6626 32.6414 49.4167 31.1153 49.8415 29.6508C50.2716 28.1663 51.0964 27.0721 52.3159 26.3682C53.0653 25.9356 53.7877 25.7642 54.483 25.854C55.1783 25.9437 55.7056 26.2998 56.0649 26.9222C56.4169 27.5319 56.555 28.138 56.4794 28.7405C56.4165 29.3357 56.2288 29.8759 55.9162 30.3611C55.2709 31.3263 54.6066 32.0823 53.9231 32.6293L53.4988 32.9504C54.2769 34.0931 55.1106 34.4078 55.9998 33.8946C56.3046 33.7186 56.5845 33.4554 56.8395 33.105C57.0945 32.7546 57.2733 32.4482 57.3758 32.1858L57.5296 31.7922L58.3389 32.1379C58.3179 32.3363 58.221 32.6378 58.0481 33.0424C57.8752 33.4471 57.6994 33.8026 57.5206 34.109C57.0185 34.9407 56.3292 35.6095 55.4527 36.1154C54.5763 36.6214 53.7044 36.7097 52.837 36.3806C51.9696 36.0515 51.217 35.3343 50.5791 34.2292ZM52.9408 32.0277C53.5227 31.5395 53.8795 30.9694 54.0113 30.3176C54.1431 29.6657 54.011 28.9968 53.615 28.3109C53.2191 27.625 52.8179 27.3993 52.4114 27.634C51.9287 27.9126 51.7923 28.5417 52.0021 29.5213C52.2173 30.4809 52.5302 31.3164 52.9408 32.0277Z" fill="#639176"/>
<path d="M76.1079 19.1958C76.1323 19.1622 76.1821 18.9612 76.2573 18.5929C76.9381 18.4849 77.8829 18.5429 79.0916 18.7669C78.9202 20.0267 78.8304 21.3329 78.8223 22.6855C78.8119 24.0237 78.8515 24.9753 78.9411 25.5402C79.0284 26.0906 79.13 26.3567 79.2459 26.3383C79.3328 26.3245 79.6297 26.1363 80.1365 25.7738L80.3765 25.602L80.8883 26.3005C80.7763 26.437 80.6254 26.6095 80.4357 26.8178C80.2605 27.0238 79.9073 27.3248 79.3762 27.721C78.8427 28.1026 78.3442 28.3302 77.8807 28.4037C76.9826 28.5462 76.3968 28.2234 76.1232 27.4352C75.3248 28.3934 74.549 28.9323 73.7958 29.0518C73.057 29.169 72.3809 28.9793 71.7675 28.4826C71.1686 27.9836 70.7703 27.1113 70.5727 25.8655C70.2647 23.9245 70.4206 22.333 71.0403 21.0913C71.6578 19.835 72.5314 19.1172 73.6613 18.938C74.4725 18.8093 75.288 18.8952 76.1079 19.1958ZM74.8065 26.9981C75.1541 26.9429 75.5234 26.7433 75.9143 26.3991C75.6916 24.3406 75.7114 22.2658 75.9737 20.1749C75.5093 20.0555 75.1249 20.02 74.8207 20.0682C74.2993 20.151 73.9318 20.7365 73.7184 21.8247C73.5171 22.8961 73.5141 24.0475 73.7095 25.2787C73.9048 26.51 74.2705 27.0831 74.8065 26.9981Z" fill="#639176"/>
<path d="M84.5538 27.827L84.4001 27.818C84.3776 27.6991 84.3784 27.4347 84.4024 27.0247C84.4272 26.6001 84.6908 25.4843 85.1932 23.6772C85.6956 21.8701 85.9545 20.8348 85.9699 20.5713C85.9964 20.1174 85.8206 19.6076 85.4423 19.0418L85.2601 18.7667L85.2987 18.4825C86.1022 18.3091 87.3751 18.2734 89.1175 18.3753C89.2709 18.7663 89.3275 19.3058 89.2873 19.994C89.4637 19.7399 89.821 19.4081 90.3592 18.9989C90.8973 18.5896 91.4373 18.4008 91.979 18.4325C92.7697 18.4787 93.1248 19.19 93.0443 20.5663C92.9659 20.6499 92.8566 20.761 92.7162 20.8997C92.5914 21.0247 92.3313 21.2005 91.9361 21.4271C91.5555 21.6546 91.1878 21.7873 90.833 21.8254C90.8183 21.8245 90.7054 21.6196 90.4943 21.2105C90.2831 20.8015 90.119 20.5936 90.0019 20.5867C89.6281 20.6971 89.2932 20.8979 88.997 21.1891C88.1462 24.1805 87.6947 26.1228 87.6424 27.0159C87.6236 27.338 87.6176 27.5654 87.6246 27.698C87.1001 27.873 86.0765 27.916 84.5538 27.827Z" fill="#639176"/>
<path d="M95.8254 25.0208C96.3218 23.2559 97.2424 22.0142 98.5873 21.2955C99.9502 20.5666 101.309 20.3928 102.665 20.774C103.498 21.0084 104.125 21.4057 104.546 21.966C104.968 22.5264 105.081 23.1525 104.886 23.8443C104.696 24.522 104.359 25.0442 103.874 25.4108C103.405 25.7814 102.887 26.0243 102.321 26.1394C101.18 26.3516 100.175 26.4041 99.3059 26.2969L98.7798 26.2174C98.5053 27.5724 98.8622 28.3889 99.8505 28.6669C100.189 28.7622 100.573 28.7787 101.002 28.7165C101.431 28.6543 101.775 28.5683 102.035 28.4585L102.424 28.2937L102.741 29.1143C102.585 29.2379 102.301 29.3791 101.891 29.5379C101.481 29.6967 101.103 29.8191 100.759 29.9052C99.8132 30.1266 98.8531 30.1004 97.8789 29.8263C96.9047 29.5523 96.2325 28.99 95.8624 28.1393C95.4922 27.2886 95.4799 26.2491 95.8254 25.0208ZM99.0505 25.1738C99.8063 25.2492 100.463 25.1065 101.022 24.7456C101.581 24.3847 101.967 23.823 102.182 23.0606C102.396 22.2982 102.277 21.8535 101.826 21.7264C101.289 21.5755 100.743 21.9172 100.189 22.7515C99.6523 23.5757 99.2729 24.3831 99.0505 25.1738Z" fill="#639176"/>
<path d="M118.785 40.3178C118.156 39.8363 117.447 39.1091 116.659 38.1362C115.929 37.8356 115.301 37.4846 114.777 37.0834C114.253 36.6822 113.964 36.4329 113.909 36.3356C114.526 35.6993 116.184 34.2446 118.885 31.9715C121.607 29.6958 123.235 28.2085 123.77 27.5098C123.877 27.37 123.944 27.1258 123.971 26.7769C123.997 26.4281 123.998 26.1142 123.971 25.8353L123.931 25.4169L124.184 25.195C125.951 26.0486 127.713 27.1485 129.471 28.4948C130.438 29.2348 131.051 30.074 131.312 31.0124C131.593 31.948 131.417 32.8293 130.784 33.6561C129.563 35.2515 127.743 35.6133 125.326 34.7416C126.035 35.4321 126.46 36.2284 126.6 37.1303C126.762 38.0296 126.499 38.9276 125.812 39.8243C124.974 40.9189 123.896 41.5067 122.578 41.5875C121.26 41.6682 119.996 41.245 118.785 40.3178ZM123.218 33.8758C122.892 33.6262 122.579 33.4324 122.278 33.2945C120.083 35.1237 118.581 36.4215 117.773 37.188C117.912 37.6088 118.291 38.0555 118.908 38.5281C119.537 39.0096 120.26 39.1751 121.077 39.0248C121.903 38.8629 122.672 38.3161 123.386 37.3845C124.473 35.9637 124.418 34.7942 123.218 33.8758ZM128.275 29.297C127.833 28.9582 127.54 28.7983 127.396 28.8174C126.43 29.7407 125.11 30.9098 123.436 32.3247C123.902 32.6813 124.25 32.9019 124.481 32.9863C124.712 33.0707 124.933 33.1199 125.144 33.1337C125.367 33.1564 125.647 33.1402 125.985 33.0848C126.722 32.966 127.452 32.435 128.174 31.4917C128.905 30.5368 128.939 29.8052 128.275 29.297Z" fill="#639176"/>
<path d="M125.115 45.9248L125.017 45.8059C125.089 45.7087 125.284 45.5296 125.601 45.2687C125.929 44.9984 126.927 44.4338 128.594 43.5746C130.262 42.7155 131.197 42.2021 131.401 42.0343C131.752 41.7454 132.007 41.27 132.165 40.6081L132.243 40.2875L132.478 40.1227C133.151 40.5945 134.042 41.5043 135.151 42.852C134.968 43.2302 134.611 43.6383 134.079 44.0763C134.385 44.0331 134.871 44.07 135.537 44.1868C136.203 44.3036 136.708 44.5715 137.053 44.9905C137.556 45.6021 137.276 46.3459 136.211 47.2219C136.097 47.2212 135.941 47.2165 135.744 47.2077C135.567 47.201 135.261 47.1296 134.827 46.9936C134.401 46.8689 134.054 46.6893 133.785 46.4547C133.776 46.4434 133.849 46.2213 134.006 45.7885C134.163 45.3557 134.204 45.094 134.129 45.0034C133.794 44.8041 133.419 44.6947 133.004 44.6753C130.231 46.0834 128.499 47.0717 127.809 47.6401C127.559 47.8451 127.389 47.9953 127.296 48.0905C126.811 47.8245 126.084 47.1027 125.115 45.9248Z" fill="#639176"/>
<path d="M134.843 52.2938C136.476 51.459 138.012 51.2908 139.453 51.7893C140.914 52.2942 141.965 53.1734 142.606 54.427C143 55.1974 143.135 55.9276 143.01 56.6175C142.885 57.3073 142.503 57.8159 141.863 58.1431C141.236 58.4637 140.624 58.5709 140.026 58.4649C139.434 58.3719 138.904 58.157 138.436 57.8201C137.505 57.1268 136.783 56.4249 136.272 55.7146L135.972 55.2746C134.792 55.9937 134.435 56.8104 134.903 57.7244C135.063 58.0378 135.312 58.3307 135.649 58.6031C135.986 58.8756 136.282 59.0696 136.539 59.1854L136.925 59.359L136.538 60.1496C136.341 60.1186 136.045 60.0065 135.65 59.8133C135.254 59.6202 134.908 59.4265 134.611 59.2324C133.806 58.6888 133.173 57.9665 132.712 57.0655C132.252 56.1645 132.207 55.2892 132.58 54.4396C132.953 53.5901 133.707 52.8748 134.843 52.2938ZM136.922 54.7641C137.38 55.37 137.932 55.7552 138.576 55.9199C139.22 56.0846 139.895 55.9866 140.6 55.626C141.305 55.2653 141.551 54.8761 141.337 54.4582C141.083 53.962 140.462 53.7939 139.473 53.9538C138.504 54.12 137.653 54.3901 136.922 54.7641Z" fill="#639176"/>
<path d="M147.395 70.1858C147.43 70.2074 147.635 70.241 148.008 70.2865C148.17 70.9565 148.188 71.9029 148.061 73.1257C146.791 73.0555 145.482 73.0705 144.133 73.1705C142.799 73.2671 141.853 73.3826 141.297 73.5171C140.756 73.6482 140.498 73.7707 140.526 73.8847C140.547 73.9703 140.758 74.2511 141.16 74.7273L141.35 74.9529L140.695 75.5188C140.55 75.4181 140.366 75.2815 140.143 75.1091C139.924 74.9509 139.596 74.6229 139.158 74.1251C138.735 73.6239 138.468 73.1452 138.358 72.689C138.144 71.8052 138.419 71.1954 139.183 70.8597C138.164 70.1405 137.565 69.4103 137.386 68.669C137.21 67.942 137.345 67.2529 137.791 66.6017C138.24 65.9648 139.078 65.4981 140.304 65.2015C142.214 64.7393 143.813 64.7675 145.1 65.286C146.402 65.801 147.187 66.6145 147.456 67.7264C147.649 68.5247 147.629 69.3445 147.395 70.1858ZM139.513 69.5122C139.596 69.8544 139.825 70.2065 140.199 70.5686C142.233 70.1821 144.303 70.036 146.408 70.1303C146.49 69.6578 146.495 69.2719 146.422 68.9725C146.298 68.4593 145.685 68.1398 144.583 68.0141C143.499 67.8991 142.351 67.9882 141.14 68.2813C139.928 68.5745 139.386 68.9848 139.513 69.5122Z" fill="#639176"/>
<path d="M140.911 89.1579C139.846 87.9064 139.316 86.804 139.32 85.8507C139.324 84.912 139.796 84.3715 140.735 84.2291C140.297 83.7871 139.955 83.2942 139.708 82.7504C139.461 82.2066 139.339 81.7294 139.341 81.3187C139.344 80.6147 139.654 80.0148 140.273 79.5189C140.891 79.0231 141.845 78.7781 143.136 78.784C145.072 78.7928 146.588 79.2103 147.684 80.0367C148.795 80.8631 149.349 81.7896 149.344 82.8163C149.339 83.8576 149.1 84.7292 148.628 85.431C151.002 85.8965 152.871 86.1323 154.235 86.1385L155.159 86.0327C155.536 87.1345 155.721 88.2133 155.717 89.2693C155.467 89.3855 155.18 89.4429 154.858 89.4414C153.787 89.4365 151.611 89.104 148.328 88.4437C145.061 87.7835 142.84 87.4507 141.667 87.4454C141.315 87.4438 141.138 87.5236 141.138 87.685C141.137 87.773 141.275 88.0523 141.552 88.5229L141.683 88.7434L140.911 89.1579ZM148.041 83.8883C148.043 83.375 147.539 82.9254 146.529 82.5394C145.519 82.1682 144.515 81.9803 143.518 81.9757C142.535 81.9713 141.904 82.0344 141.625 82.1651C141.345 82.3105 141.205 82.5225 141.204 82.8012C141.202 83.2852 141.397 83.7628 141.791 84.2339C142.378 84.2806 144.327 84.6194 147.639 85.2505C147.905 84.7531 148.039 84.299 148.041 83.8883Z" fill="#639176"/>
<path d="M146.103 98.8629C145.5 98.7361 144.5 98.3235 143.103 97.6252C141.72 96.9298 140.8 96.5339 140.34 96.4373C139.895 96.3438 139.659 96.3616 139.632 96.4907C139.614 96.5769 139.681 96.9356 139.833 97.5671L139.908 97.8526L139.077 98.0602C138.99 97.9068 138.882 97.7044 138.755 97.4529C138.628 97.2014 138.476 96.7497 138.298 96.0979C138.135 95.4491 138.106 94.8735 138.212 94.3711C138.318 93.8688 138.551 93.5058 138.913 93.2821C139.289 93.0614 139.736 93.0054 140.252 93.1141C140.783 93.2257 141.678 93.6013 142.938 94.2408C144.212 94.8833 145.049 95.2468 145.451 95.3313C146.054 95.458 146.66 95.3906 147.27 95.1291L147.569 94.9897L147.844 95.0701C147.9 95.876 147.748 97.133 147.389 98.841C147.134 98.9823 146.705 98.9896 146.103 98.8629ZM150.192 97.16C150.54 96.9333 150.95 96.8697 151.424 96.9693C151.898 97.0689 152.273 97.3502 152.55 97.8131C152.825 98.2905 152.908 98.7875 152.799 99.3042C152.69 99.8209 152.462 100.193 152.115 100.419C151.767 100.646 151.357 100.71 150.883 100.61C150.424 100.513 150.059 100.219 149.787 99.7276C149.513 99.2503 149.429 98.7604 149.534 98.2581C149.64 97.7557 149.859 97.3897 150.192 97.16Z" fill="#639176"/>
<path d="M143.032 110.959C142.702 110.797 142.352 110.524 141.983 110.141C142.243 109.645 142.465 109.165 142.649 108.701L142.794 108.333C140.002 106.501 138.231 105.436 137.481 105.139C137.086 104.982 136.856 104.986 136.791 105.15C136.721 105.327 136.71 105.851 136.759 106.723L135.938 106.823C135.41 105.21 135.351 103.885 135.762 102.849C135.951 102.372 136.258 102.036 136.682 101.841C137.101 101.66 137.556 101.666 138.047 101.861C138.551 102.061 139.095 102.34 139.679 102.697C140.258 103.068 140.957 103.535 141.776 104.096C142.608 104.662 143.285 105.104 143.806 105.421C143.965 104.9 144.073 104.509 144.129 104.247C144.304 104.285 144.527 104.358 144.8 104.466C145.086 104.579 145.31 104.691 145.471 104.803L144.961 106.091C145.654 106.492 146.327 106.822 146.982 107.081L147.624 107.312L147.685 107.336C147.632 108.546 147.419 109.621 147.046 110.562C146.752 110.508 146.4 110.401 145.991 110.238C145.582 110.076 144.858 109.655 143.818 108.975L143.032 110.959Z" fill="#639176"/>
<path d="M139.049 128.509L134.001 133.855L132.665 135.433C132.405 135.262 132.148 135.065 131.896 134.842C131.643 134.619 131.5 134.414 131.468 134.229C131.436 134.044 131.522 133.836 131.726 133.606C131.745 133.584 132.502 132.872 133.994 131.471C133.539 130.99 132.838 130.077 131.893 128.732C130.947 127.388 129.91 125.982 128.78 124.514C127.651 123.045 126.547 121.825 125.468 120.853C125.627 120.23 126.295 119.253 127.47 117.924L127.572 117.808C128.143 118.313 129.57 120.132 131.852 123.264C134.133 126.397 135.582 128.235 136.197 128.779C136.241 128.817 136.328 128.874 136.457 128.95L137.04 128.29C137.837 127.389 138.311 126.575 138.464 125.849C139.017 125.887 139.636 126.161 140.322 126.669C140.124 127.16 139.699 127.773 139.049 128.509Z" fill="#639176"/>
<path d="M121.563 129.487C122.606 130.995 122.975 132.496 122.671 133.99C122.364 135.504 121.631 136.662 120.473 137.463C119.761 137.955 119.055 138.185 118.355 138.152C117.654 138.12 117.1 137.808 116.691 137.217C116.29 136.638 116.103 136.045 116.13 135.438C116.144 134.84 116.287 134.286 116.559 133.777C117.123 132.762 117.724 131.955 118.36 131.354L118.757 130.999C117.889 129.924 117.032 129.678 116.188 130.262C115.898 130.462 115.641 130.747 115.415 131.117C115.189 131.487 115.036 131.807 114.955 132.077L114.834 132.482L113.999 132.203C114.004 132.004 114.076 131.696 114.216 131.278C114.355 130.861 114.501 130.492 114.654 130.172C115.087 129.302 115.719 128.58 116.552 128.004C117.384 127.428 118.246 127.269 119.137 127.527C120.029 127.784 120.837 128.437 121.563 129.487ZM119.388 131.873C118.848 132.407 118.539 133.005 118.461 133.665C118.383 134.326 118.569 134.981 119.019 135.633C119.47 136.284 119.888 136.476 120.274 136.209C120.733 135.892 120.817 135.254 120.528 134.295C120.236 133.356 119.856 132.549 119.388 131.873Z" fill="#639176"/>
<path d="M105.478 144.274C105.462 144.312 105.455 144.519 105.459 144.895C104.817 145.144 103.881 145.286 102.652 145.322C102.554 144.055 102.367 142.759 102.089 141.435C101.818 140.124 101.578 139.203 101.372 138.669C101.17 138.15 101.015 137.911 100.905 137.953C100.823 137.985 100.573 138.232 100.154 138.693L99.9554 138.911L99.308 138.336C99.3886 138.179 99.4998 137.979 99.6413 137.735C99.7692 137.497 100.051 137.128 100.487 136.629C100.928 136.144 101.367 135.816 101.805 135.647C102.653 135.318 103.293 135.51 103.727 136.223C104.305 135.118 104.95 134.428 105.661 134.152C106.359 133.882 107.06 133.925 107.764 134.281C108.455 134.643 109.028 135.411 109.483 136.587C110.194 138.42 110.377 140.009 110.033 141.353C109.694 142.711 108.991 143.597 107.924 144.01C107.159 144.307 106.343 144.395 105.478 144.274ZM105.106 136.373C104.778 136.5 104.459 136.773 104.149 137.192C104.801 139.157 105.219 141.189 105.403 143.289C105.882 143.307 106.266 143.261 106.553 143.15C107.045 142.959 107.281 142.309 107.26 141.201C107.231 140.111 106.991 138.985 106.541 137.822C106.09 136.66 105.612 136.177 105.106 136.373Z" fill="#639176"/>
<path d="M95.6163 137.947L96.0329 137.913C96.0894 138.6 95.9929 139.932 95.7434 141.91C95.4793 143.889 95.3581 145.01 95.3797 145.273C95.4194 145.755 95.6661 146.25 96.1198 146.757L96.3388 147.004L96.3403 147.291C95.5689 147.575 94.3136 147.789 92.5741 147.932C92.3466 147.671 92.207 147.226 92.1554 146.597C90.9203 147.685 89.9154 148.261 89.1407 148.324C88.1613 148.405 87.5425 147.948 87.2842 146.954C86.916 147.308 86.4314 147.679 85.8305 148.067C85.2161 148.47 84.6605 148.692 84.1635 148.733C83.6519 148.775 83.2142 148.642 82.8503 148.334C82.4877 148.04 82.2824 147.6 82.2343 147.016C82.1862 146.431 82.2677 145.453 82.4788 144.082C82.6898 142.71 82.7761 141.791 82.7376 141.323C82.7004 140.87 82.616 140.649 82.4844 140.66C82.3967 140.667 82.1085 140.83 81.6197 141.15L81.3893 141.302L80.9316 140.567C81.2804 140.155 81.7693 139.747 82.3982 139.342C83.0138 138.953 83.57 138.738 84.067 138.698C85.1633 138.607 85.7625 139.184 85.8647 140.426C85.9019 140.879 85.8229 141.798 85.6277 143.183C85.4191 144.583 85.3316 145.488 85.3652 145.897C85.4 146.321 85.5417 146.523 85.7902 146.503C86.2141 146.468 86.6833 146.267 87.1977 145.901C87.2029 145.607 87.3258 144.596 87.5665 142.869C87.7926 141.143 87.8671 139.813 87.7902 138.877C88.1985 138.652 89.1847 138.476 90.7487 138.347C90.7912 138.505 90.8377 138.891 90.8881 139.505C90.9386 140.119 90.8564 141.178 90.6416 142.682C90.4121 144.187 90.3136 145.137 90.346 145.532C90.3785 145.927 90.5336 146.113 90.8113 146.09C91.2498 146.054 91.7178 145.839 92.2151 145.445C92.2336 145.311 92.3269 144.656 92.4951 143.479C92.8314 141.126 92.9594 139.46 92.8789 138.481C93.3737 138.234 94.2862 138.056 95.6163 137.947Z" fill="#639176"/>
<path d="M63.5833 145.831C64.0865 143.419 65.0862 141.321 66.5823 139.535C67.3232 138.641 68.2175 137.981 69.2652 137.555C70.2985 137.127 71.3895 137.032 72.5381 137.272C73.9308 137.562 74.8726 138.291 75.3634 139.457C75.8513 140.637 75.9185 142.075 75.565 143.769C74.9539 146.698 73.8178 148.948 72.1566 150.519C70.4924 152.105 68.6552 152.688 66.6452 152.268C65.2094 151.969 64.2563 151.223 63.7858 150.031C63.3123 148.854 63.2448 147.454 63.5833 145.831ZM72.0433 138.674C71.3972 138.54 70.7504 138.839 70.1028 139.573C69.4379 140.318 68.872 141.271 68.405 142.433C67.4974 144.7 66.9208 146.423 66.6752 147.6C66.4266 148.792 66.3608 149.61 66.478 150.054C66.5777 150.509 66.8789 150.789 67.3814 150.894C67.8696 150.996 68.3994 150.754 68.9709 150.169C69.5281 149.581 70.0395 148.781 70.5052 147.77C71.4307 145.776 72.1181 143.702 72.5674 141.548C72.7831 140.514 72.8365 139.791 72.7278 139.379C72.616 138.981 72.3878 138.746 72.0433 138.674Z" fill="#639176"/>
<path d="M58.4801 146.01C57.8329 146.694 56.9576 147.157 55.8543 147.398C54.7447 147.653 53.6594 147.53 52.5984 147.029C51.5241 146.522 50.7997 145.823 50.4253 144.933C50.0314 144.049 50.0285 143.196 50.4167 142.374C50.8049 141.552 51.4543 140.966 52.365 140.618C53.2693 140.282 54.2355 140.211 55.2633 140.405C54.4366 139.82 53.882 139.087 53.5997 138.208C53.3042 137.323 53.3849 136.396 53.842 135.427C54.418 134.207 55.4202 133.407 56.8484 133.027C58.2704 132.66 59.6644 132.8 61.0305 133.444C62.516 134.146 63.4897 135.141 63.9519 136.429C64.2032 137.099 64.1817 137.746 63.8874 138.369C63.7935 138.568 63.6278 138.782 63.3902 139.01C63.1463 139.252 62.9073 139.415 62.673 139.499C62.5278 139.463 62.3757 139.407 62.2165 139.332C61.2748 138.888 60.671 138.294 60.4049 137.553L61.6789 135.575C61.5621 135.342 61.2849 135.122 60.8472 134.915C60.1841 134.602 59.4509 134.677 58.6479 135.142C57.8253 135.613 57.1886 136.326 56.7378 137.281C56.287 138.236 56.1924 138.986 56.4541 139.531C56.7094 140.09 57.3278 140.601 58.3093 141.064L58.7763 141.26L58.1779 142.218C57.4967 141.978 56.9625 141.855 56.5753 141.851C56.1686 141.854 55.7759 141.895 55.3972 141.976C54.561 142.133 53.9331 142.655 53.5136 143.544C53.2506 144.101 53.2091 144.584 53.3889 144.994C53.5492 145.41 53.8349 145.715 54.2461 145.909C55.3336 146.422 56.5127 146.192 57.7832 145.219L58.4801 146.01Z" fill="#639176"/>
<path d="M32.8306 131.152C33.846 130.115 35.7818 128.818 38.6378 127.262C38.8646 127.135 39.2821 126.908 39.8905 126.58C40.4781 126.252 40.9317 125.998 41.2513 125.818C41.6266 126.001 41.9244 126.2 42.1445 126.415C42.3542 126.62 42.5326 126.815 42.6798 127C40.0766 128.906 37.9235 130.729 36.2208 132.469L35.0227 133.882C33.8547 133.293 32.9195 132.655 32.2171 131.968C32.2466 131.812 32.451 131.54 32.8306 131.152ZM46.6661 124.468C46.6706 124.883 46.5036 125.263 46.1651 125.609C45.8266 125.955 45.3876 126.121 44.8481 126.106C44.2981 126.081 43.8345 125.883 43.4571 125.514C43.0797 125.145 42.8887 124.753 42.8842 124.338C42.8797 123.923 43.0467 123.543 43.3852 123.197C43.7134 122.861 44.1578 122.711 44.7182 122.747C45.2682 122.772 45.7266 122.964 46.0935 123.323C46.4605 123.682 46.6513 124.064 46.6661 124.468Z" fill="#639176"/>
<path d="M25.4766 121.784C26.653 120.933 28.7802 119.982 31.8583 118.932C32.1033 118.845 32.5533 118.692 33.2084 118.471C33.843 118.248 34.333 118.074 34.6784 117.951C35.0174 118.194 35.2772 118.441 35.4578 118.69C35.6297 118.928 35.7725 119.151 35.8863 119.358C32.9982 120.796 30.5678 122.228 28.5952 123.655L27.1753 124.845C26.1237 124.067 25.31 123.28 24.734 122.484C24.7894 122.335 25.0369 122.102 25.4766 121.784ZM40.2436 117.536C40.1778 117.946 39.9489 118.293 39.5567 118.576C39.1646 118.86 38.7039 118.949 38.1747 118.843C37.637 118.725 37.2133 118.452 36.9038 118.025C36.5944 117.597 36.4725 117.178 36.5382 116.768C36.604 116.359 36.8329 116.012 37.2251 115.728C37.6053 115.453 38.0686 115.381 38.615 115.51C39.1528 115.628 39.5721 115.895 39.873 116.311C40.1739 116.727 40.2974 117.135 40.2436 117.536Z" fill="#639176"/>
</g>
</svg>
